<svg width="157" height="36" viewBox="0 0 157 36" fill="none" xmlns="http://www.w3.org/2000/svg">
<path d="M22.92 12.752C22.792 12.912 22.632 13.12 22.44 13.376C22.248 13.616 22.096 13.824 21.984 14C21.616 14.624 21.128 15.344 20.52 16.16C19.912 16.96 19.24 17.76 18.504 18.56C17.768 19.344 17.008 20.016 16.224 20.576L13.728 18.584C14.208 18.296 14.68 17.96 15.144 17.576C15.608 17.192 16.032 16.792 16.416 16.376C16.816 15.944 17.16 15.536 17.448 15.152C17.752 14.768 17.984 14.424 18.144 14.12C17.936 14.12 17.584 14.12 17.088 14.12C16.592 14.12 16 14.12 15.312 14.12C14.624 14.12 13.88 14.12 13.08 14.12C12.296 14.12 11.512 14.12 10.728 14.12C9.944 14.12 9.2 14.12 8.496 14.12C7.808 14.12 7.208 14.12 6.696 14.12C6.2 14.12 5.848 14.12 5.64 14.12C5.144 14.12 4.672 14.136 4.224 14.168C3.776 14.2 3.272 14.24 2.712 14.288V10.952C3.176 11.016 3.656 11.072 4.152 11.12C4.648 11.168 5.144 11.192 5.64 11.192C5.848 11.192 6.216 11.192 6.744 11.192C7.272 11.192 7.896 11.192 8.616 11.192C9.352 11.192 10.128 11.192 10.944 11.192C11.776 11.192 12.6 11.192 13.416 11.192C14.248 11.192 15.016 11.192 15.72 11.192C16.44 11.192 17.048 11.192 17.544 11.192C18.056 11.192 18.4 11.192 18.576 11.192C18.8 11.192 19.072 11.184 19.392 11.168C19.712 11.152 20.024 11.128 20.328 11.096C20.648 11.064 20.88 11.024 21.024 10.976L22.92 12.752ZM13.128 15.992C13.128 17.176 13.104 18.32 13.056 19.424C13.008 20.528 12.872 21.592 12.648 22.616C12.44 23.624 12.096 24.584 11.616 25.496C11.152 26.408 10.504 27.272 9.672 28.088C8.84 28.904 7.776 29.656 6.48 30.344L3.672 28.064C4.056 27.936 4.464 27.768 4.896 27.56C5.328 27.336 5.76 27.064 6.192 26.744C6.96 26.216 7.576 25.656 8.04 25.064C8.52 24.472 8.888 23.832 9.144 23.144C9.4 22.44 9.576 21.68 9.672 20.864C9.768 20.032 9.816 19.128 9.816 18.152C9.816 17.784 9.808 17.432 9.792 17.096C9.776 16.744 9.728 16.376 9.648 15.992H13.128ZM27.6113 12.704C28.0433 12.752 28.5153 12.792 29.0273 12.824C29.5553 12.84 30.0193 12.848 30.4193 12.848C30.7553 12.848 31.2033 12.848 31.7633 12.848C32.3233 12.848 32.9393 12.848 33.6113 12.848C34.2833 12.848 34.9633 12.848 35.6512 12.848C36.3553 12.848 37.0193 12.848 37.6432 12.848C38.2833 12.848 38.8433 12.848 39.3233 12.848C39.8033 12.848 40.1473 12.848 40.3553 12.848C40.8353 12.848 41.3153 12.832 41.7953 12.8C42.2753 12.768 42.6833 12.736 43.0193 12.704V16.184C42.6833 16.168 42.2593 16.152 41.7473 16.136C41.2353 16.104 40.7713 16.088 40.3553 16.088C40.1473 16.088 39.7873 16.088 39.2753 16.088C38.7793 16.088 38.1953 16.088 37.5233 16.088C36.8513 16.088 36.1473 16.088 35.4113 16.088C34.6913 16.088 33.9953 16.088 33.3233 16.088C32.6513 16.088 32.0593 16.088 31.5473 16.088C31.0353 16.088 30.6673 16.088 30.4433 16.088C29.9793 16.088 29.4913 16.096 28.9793 16.112C28.4673 16.128 28.0113 16.152 27.6113 16.184V12.704ZM25.5953 24.44C26.0753 24.472 26.5713 24.504 27.0833 24.536C27.6113 24.568 28.1153 24.584 28.5953 24.584C28.8033 24.584 29.1873 24.584 29.7473 24.584C30.3073 24.584 30.9633 24.584 31.7153 24.584C32.4833 24.584 33.3073 24.584 34.1873 24.584C35.0673 24.584 35.9393 24.584 36.8033 24.584C37.6833 24.584 38.4993 24.584 39.2513 24.584C40.0193 24.584 40.6753 24.584 41.2193 24.584C41.7793 24.584 42.1633 24.584 42.3713 24.584C42.7873 24.584 43.2273 24.576 43.6913 24.56C44.1713 24.528 44.6113 24.488 45.0113 24.44V28.112C44.5953 28.064 44.1393 28.032 43.6433 28.016C43.1473 27.984 42.7233 27.968 42.3713 27.968C42.1633 27.968 41.7793 27.968 41.2193 27.968C40.6753 27.968 40.0193 27.968 39.2513 27.968C38.4993 27.968 37.6833 27.968 36.8033 27.968C35.9393 27.968 35.0673 27.968 34.1873 27.968C33.3073 27.968 32.4833 27.968 31.7153 27.968C30.9633 27.968 30.3073 27.968 29.7473 27.968C29.1873 27.968 28.8033 27.968 28.5953 27.968C28.1153 27.968 27.6033 27.984 27.0592 28.016C26.5313 28.032 26.0433 28.064 25.5953 28.112V24.44ZM67.7633 11.36C67.6033 11.632 67.4273 11.992 67.2353 12.44C67.0433 12.872 66.8833 13.232 66.7553 13.52C66.4673 14.32 66.1073 15.192 65.6753 16.136C65.2433 17.064 64.7553 18 64.2113 18.944C63.6673 19.888 63.0673 20.792 62.4113 21.656C61.6753 22.632 60.8353 23.616 59.8913 24.608C58.9633 25.584 57.8993 26.544 56.6993 27.488C55.4993 28.432 54.1233 29.336 52.5713 30.2L49.8833 27.776C52.0753 26.72 53.9633 25.528 55.5473 24.2C57.1313 22.856 58.5473 21.352 59.7953 19.688C60.7713 18.456 61.5473 17.224 62.1233 15.992C62.7153 14.744 63.2113 13.52 63.6113 12.32C63.7393 12 63.8513 11.632 63.9473 11.216C64.0593 10.784 64.1393 10.416 64.1873 10.112L67.7633 11.36ZM54.5633 13.688C55.1713 14.056 55.8113 14.472 56.4833 14.936C57.1713 15.384 57.8593 15.848 58.5473 16.328C59.2513 16.808 59.9153 17.28 60.5393 17.744C61.1793 18.208 61.7553 18.632 62.2673 19.016C63.5473 20.024 64.7953 21.072 66.0113 22.16C67.2273 23.248 68.3233 24.312 69.2993 25.352L66.8273 28.088C65.7713 26.872 64.6993 25.752 63.6113 24.728C62.5233 23.688 61.3473 22.64 60.0833 21.584C59.6513 21.216 59.1553 20.816 58.5953 20.384C58.0353 19.952 57.4273 19.496 56.7713 19.016C56.1313 18.536 55.4513 18.056 54.7313 17.576C54.0113 17.08 53.2753 16.6 52.5233 16.136L54.5633 13.688ZM72.0353 29L75.7073 9.56H80.6033L84.2273 29H80.2673L79.6193 24.896H76.7633L76.0913 29H72.0353ZM77.1473 22.328H79.2113L78.1793 14.744L77.1473 22.328ZM85.974 29V15.128H89.886V16.52C90.398 16.008 90.926 15.608 91.47 15.32C92.03 15.032 92.614 14.888 93.222 14.888C93.798 14.888 94.27 15.032 94.638 15.32C95.022 15.592 95.31 15.976 95.502 16.472C95.694 16.952 95.79 17.504 95.79 18.128V29H91.902V18.68C91.902 18.344 91.846 18.088 91.734 17.912C91.622 17.736 91.414 17.648 91.11 17.648C90.95 17.648 90.758 17.696 90.534 17.792C90.326 17.872 90.11 17.992 89.886 18.152V29H85.974ZM98.1621 29V15.128H102.074V29H98.1621ZM98.1381 12.776V10.064H102.074V12.776H98.1381ZM107.298 29L103.794 9.56H107.466L109.554 22.76L111.498 9.56H115.386L111.834 29H107.298ZM120.815 29.24C119.807 29.24 118.943 29.064 118.223 28.712C117.503 28.344 116.951 27.816 116.567 27.128C116.183 26.424 115.991 25.584 115.991 24.608V19.52C115.991 18.528 116.183 17.688 116.567 17C116.951 16.312 117.503 15.792 118.223 15.44C118.959 15.072 119.823 14.888 120.815 14.888C121.839 14.888 122.687 15.064 123.359 15.416C124.047 15.768 124.559 16.288 124.895 16.976C125.247 17.664 125.423 18.512 125.423 19.52V22.304H119.855V24.968C119.855 25.32 119.895 25.608 119.975 25.832C120.055 26.056 120.167 26.216 120.311 26.312C120.455 26.408 120.623 26.456 120.815 26.456C121.007 26.456 121.175 26.416 121.319 26.336C121.479 26.24 121.599 26.096 121.679 25.904C121.775 25.712 121.823 25.448 121.823 25.112V23.648H125.423V24.992C125.423 26.4 125.015 27.464 124.199 28.184C123.383 28.888 122.255 29.24 120.815 29.24ZM119.855 20.48H121.823V19.088C121.823 18.72 121.775 18.432 121.679 18.224C121.599 18.016 121.479 17.872 121.319 17.792C121.175 17.712 120.999 17.672 120.791 17.672C120.599 17.672 120.431 17.72 120.287 17.816C120.159 17.912 120.055 18.08 119.975 18.32C119.895 18.544 119.855 18.872 119.855 19.304V20.48ZM127.6 29V15.128H131.512V17.432C131.96 16.632 132.408 16.024 132.856 15.608C133.304 15.176 133.848 14.96 134.488 14.96C134.616 14.96 134.728 14.968 134.824 14.984C134.92 14.984 135.008 15 135.088 15.032V18.92C134.912 18.84 134.712 18.776 134.488 18.728C134.28 18.664 134.056 18.632 133.816 18.632C133.368 18.632 132.952 18.752 132.568 18.992C132.184 19.232 131.832 19.56 131.512 19.976V29H127.6ZM141.012 29.24C139.796 29.24 138.78 28.968 137.964 28.424C137.164 27.88 136.508 26.992 135.996 25.76L138.66 24.584C138.916 25.208 139.212 25.704 139.548 26.072C139.9 26.424 140.284 26.6 140.7 26.6C141.004 26.6 141.228 26.536 141.372 26.408C141.532 26.28 141.612 26.104 141.612 25.88C141.612 25.512 141.468 25.176 141.18 24.872C140.908 24.568 140.412 24.12 139.692 23.528L138.684 22.688C137.948 22.064 137.364 21.464 136.932 20.888C136.516 20.296 136.308 19.568 136.308 18.704C136.308 17.952 136.5 17.288 136.884 16.712C137.284 16.136 137.812 15.688 138.468 15.368C139.124 15.048 139.828 14.888 140.58 14.888C141.732 14.888 142.692 15.2 143.46 15.824C144.228 16.448 144.772 17.328 145.092 18.464L142.524 19.616C142.428 19.312 142.292 19.008 142.116 18.704C141.94 18.4 141.732 18.144 141.492 17.936C141.252 17.728 140.98 17.624 140.676 17.624C140.42 17.624 140.212 17.696 140.052 17.84C139.908 17.984 139.836 18.176 139.836 18.416C139.836 18.72 140.004 19.048 140.34 19.4C140.692 19.752 141.172 20.176 141.78 20.672L142.764 21.536C143.164 21.872 143.556 22.232 143.94 22.616C144.324 23 144.636 23.424 144.876 23.888C145.132 24.352 145.26 24.88 145.26 25.472C145.26 26.272 145.06 26.96 144.66 27.536C144.26 28.096 143.732 28.52 143.076 28.808C142.436 29.096 141.748 29.24 141.012 29.24ZM151.448 29.24C150.44 29.24 149.576 29.064 148.855 28.712C148.136 28.344 147.584 27.816 147.2 27.128C146.816 26.424 146.624 25.584 146.624 24.608V19.52C146.624 18.528 146.816 17.688 147.2 17C147.584 16.312 148.136 15.792 148.855 15.44C149.592 15.072 150.456 14.888 151.448 14.888C152.472 14.888 153.32 15.064 153.992 15.416C154.68 15.768 155.192 16.288 155.528 16.976C155.88 17.664 156.056 18.512 156.056 19.52V22.304H150.488V24.968C150.488 25.32 150.528 25.608 150.608 25.832C150.688 26.056 150.8 26.216 150.944 26.312C151.088 26.408 151.256 26.456 151.448 26.456C151.64 26.456 151.808 26.416 151.952 26.336C152.112 26.24 152.232 26.096 152.312 25.904C152.408 25.712 152.456 25.448 152.456 25.112V23.648H156.056V24.992C156.056 26.4 155.648 27.464 154.832 28.184C154.016 28.888 152.888 29.24 151.448 29.24ZM150.488 20.48H152.456V19.088C152.456 18.72 152.408 18.432 152.312 18.224C152.232 18.016 152.112 17.872 151.952 17.792C151.808 17.712 151.632 17.672 151.424 17.672C151.232 17.672 151.064 17.72 150.92 17.816C150.792 17.912 150.688 18.08 150.608 18.32C150.528 18.544 150.488 18.872 150.488 19.304V20.48Z" fill="#9333EA"/>
</svg>
